<?xml version="1.0" encoding="UTF-8"?><svg id="a" xmlns="http://www.w3.org/2000/svg" width="285.02" height="80" viewBox="0 0 285.02 80"><rect width="272.89" height="80" style="fill:none;"/><g><path d="M271.47,34.42v2.71h.07c.98-2.22,3.52-3.23,5.56-3.23,5.35,0,7.93,4.48,7.93,9.47,0,7.15-4.34,9.75-8.3,9.75-1.93,0-3.35-.8-4.54-2.32v7.98h-7.05v-24.36h6.34Zm6.51,9c0-2.88-1.22-4.23-3.08-4.23-1.69,0-2.85,1.67-2.85,4.09s1.05,4.27,2.88,4.27,3.05-1.63,3.05-4.13" style="fill:#0041c0;"/><path d="M256.65,50.63c-.89,.78-1.75,1.33-2.81,1.83-1.75,.81-3.49,.94-5.34,.4-1.98-.59-3.41-1.98-4.03-3.95-.3-.95-.43-1.79-.43-2.79v-11.7h7.18v10.52c0,.35,.04,.64,.15,.98,.19,.6,.58,1.05,1.17,1.3,1.26,.54,2.72,.06,3.41-1.13,.3-.5,.43-.99,.42-1.57v-10.1h6.95v18.13h-6.51l-.15-1.92" style="fill:#0041c0;"/><path d="M222.08,34.01h0c-.3-.04-.61-.11-.91-.11-.02,0-.03,0-.05,0,0,0-.01,0-.02,0-.03,0-.06,0-.09,0-.18,0-.35,.01-.51,.03-2.22,.16-3.76,1.19-4.77,3.19h-.07v-2.7h-6.38v18.12h7.02v-6.26c0-3.91,1.45-5.29,4.32-5.29,.47,0,.98,.14,1.45,.21v-7.19Z" style="fill:#0041c0;"/><path d="M207.49,52.54v-13.71h-10.86v5.37h3.5c-.4,1.72-2.46,2.86-4.07,2.86-4,0-5.08-3.2-5.08-6.72,0-4.38,1.48-7.27,4.61-7.27,2.05,0,3.5,1.1,4.07,3.13h7.53c-.98-6.1-5.65-9.2-11.47-9.2-7.84,0-12.68,5.44-12.68,13.37,0,8.65,5.55,12.75,11.74,12.75,3.46,0,5.58-1.2,6.92-2.61l.25,2.02h5.54Z" style="fill:#0041c0;"/><g><path d="M168.2,50.19c-1.37,1.44-2.92,2.3-4.87,2.69-1.32,.27-2.47,.32-3.8,.18-1.77-.18-3.23-.75-4.66-1.82-1.16-.87-2-1.81-2.73-3.07-.56-.98-.89-1.89-1.07-3-.26-1.54-.19-2.9,.22-4.4,.93-3.43,3.5-5.86,6.98-6.58,1.98-.41,3.75-.37,5.71,.14,1.4,.36,2.51,.97,3.57,1.95,.67,.62,1.14,1.24,1.56,2.05,.5,.95,.7,1.88,.64,2.95h-6.2c-.14-.83-.53-1.49-1.2-2-.87-.66-1.99-.71-2.91-.14-.63,.39-1.05,.93-1.27,1.64-.53,1.69-.56,3.27-.08,4.98,.2,.72,.54,1.28,1.08,1.8,.62,.59,1.39,.83,2.24,.71,.53-.08,.95-.31,1.31-.7,.37-.41,.58-.85,.68-1.4,.07-.38,.11-.71,.13-1.1h6.53c.13,1.97-.49,3.7-1.85,5.13" style="fill:#0041c0;"/><rect x="143.21" y="27.17" width="6.78" height="4.79" style="fill:#0041c0;"/><rect x="143.21" y="34.42" width="6.78" height="18.13" style="fill:#0041c0;"/><path d="M129.17,36.34c.89-.78,1.74-1.33,2.82-1.83,1.75-.81,3.5-.94,5.36-.4,1.99,.58,3.42,1.98,4.05,3.95,.3,.95,.43,1.79,.43,2.79v11.7h-7.2v-10.52c0-.35-.04-.65-.15-.99-.19-.61-.58-1.05-1.17-1.3-1.28-.54-2.73-.06-3.43,1.13-.29,.5-.43,.99-.43,1.57v10.1h-6.97v-18.13h6.54l.15,1.92" style="fill:#0041c0;"/><path d="M48.99,36.34c.89-.78,1.74-1.33,2.82-1.83,1.75-.81,3.5-.94,5.35-.4,1.99,.58,3.42,1.98,4.05,3.95,.3,.95,.43,1.79,.43,2.79v11.7h-7.2v-10.52c0-.35-.04-.65-.15-.99-.19-.61-.59-1.05-1.17-1.3-1.28-.54-2.73-.06-3.43,1.13-.29,.5-.43,.99-.43,1.57v10.1h-6.97v-18.13h6.54l.15,1.92" style="fill:#0041c0;"/><path d="M91.72,45.88c.52,.09,.95,.2,1.45,.36,.42,.14,.7,.46,.79,.89,.1,.47-.03,.91-.37,1.25-.34,.34-.73,.54-1.21,.62-.64,.1-1.21,.05-1.82-.17-.3-.11-.53-.24-.77-.44-.31-.26-.51-.56-.63-.95-.1-.33-.14-.62-.14-.97h-6.64v.39c0,.62,.1,1.15,.32,1.74,.33,.88,.79,1.56,1.48,2.2,.9,.84,1.84,1.37,3.02,1.7,2.45,.7,4.67,.84,7.19,.45,1.18-.18,2.16-.5,3.22-1.05,.47-.24,.84-.49,1.25-.83,1.79-1.51,2.46-3.8,1.74-6.03-.27-.84-.7-1.49-1.37-2.07-.92-.79-1.84-1.3-3-1.64-.26-.07-.47-.14-.73-.21-1.42-.4-2.64-.66-4.1-.87-.39-.06-.72-.12-1.11-.21-.18-.04-.33-.09-.49-.17-.41-.18-.59-.66-.4-1.07,0-.02,.02-.04,.03-.06,.22-.39,.54-.65,.97-.77,.76-.22,1.46-.2,2.2,.05,.71,.24,1.16,.9,1.13,1.65h6.4c0-.79-.12-1.45-.39-2.19-.27-.75-.68-1.32-1.31-1.81-.55-.43-1.06-.73-1.71-.98-.63-.24-1.19-.4-1.86-.51-1.58-.28-2.95-.35-4.55-.26-.92,.05-1.69,.17-2.59,.38-1.21,.28-2.18,.75-3.16,1.52-.83,.65-1.37,1.41-1.72,2.41-.16,.45-.23,.85-.25,1.33-.03,.79,.08,1.47,.37,2.21,.53,1.33,1.46,2.26,2.79,2.79,.67,.27,1.26,.44,1.97,.59,1.4,.29,2.58,.51,3.98,.75" style="fill:#0041c0;"/><path d="M12.36,44.73H7.7v-5.95h3.02c.58,0,1.06-.01,1.64-.04,.79-.04,1.46-.4,1.93-1.04,.25-.34,.39-.68,.45-1.1,.05-.35,.06-.66,.02-1.01-.13-1.32-1.23-2.32-2.55-2.32H7.7v19.28H0V27.17H12.59c.5,0,.92,.01,1.42,.04,3.34,.18,6.09,2.04,7.51,5.06,.74,1.58,.99,3.09,.8,4.82-.4,3.65-2.95,6.48-6.53,7.27-1.19,.26-2.21,.37-3.43,.37" style="fill:#0041c0;"/><path d="M113.47,34.07c-.72-.11-1.33-.16-2.06-.16s-1.34,.05-2.06,.16c-2.08,.33-3.77,1.16-5.29,2.62-1.63,1.56-2.51,3.41-2.72,5.66-.12,1.38-.02,2.57,.35,3.9,.57,2.05,1.64,3.63,3.32,4.92,1.11,.85,2.21,1.36,3.58,1.66,.97,.21,1.81,.3,2.8,.3s1.83-.09,2.8-.3c1.37-.3,2.47-.81,3.58-1.66l-3.9-4.25c-.62,1.38-2.23,1.99-3.61,1.37-.64-.29-1.08-.73-1.37-1.37-.26-.59-.42-1.11-.51-1.75-.19-1.27-.17-2.38,.08-3.65,.13-.66,.35-1.19,.71-1.75,.8-1.22,2.44-1.56,3.66-.76,.32,.21,.55,.44,.76,.76,.37,.56,.58,1.1,.71,1.75,.25,1.26,.27,2.37,.08,3.65-.1,.64-.25,1.16-.51,1.75l3.9,4.25c1.69-1.29,2.76-2.87,3.32-4.92,.37-1.33,.48-2.52,.35-3.9-.2-2.25-1.09-4.1-2.72-5.66-1.52-1.46-3.21-2.3-5.29-2.62" style="fill:#0041c0;"/><path d="M235.04,34.07c-.72-.11-1.33-.16-2.06-.16s-1.34,.05-2.06,.16c-2.08,.33-3.77,1.16-5.29,2.62-1.63,1.56-2.51,3.41-2.72,5.66-.12,1.38-.02,2.57,.35,3.9,.57,2.05,1.64,3.63,3.32,4.92,1.11,.85,2.21,1.36,3.58,1.66,.97,.21,1.81,.3,2.8,.3s1.83-.09,2.8-.3c1.37-.3,2.47-.81,3.58-1.66l-3.9-4.25c-.62,1.38-2.23,1.99-3.61,1.37-.64-.29-1.08-.73-1.37-1.37-.26-.59-.42-1.11-.51-1.75-.19-1.27-.17-2.38,.08-3.65,.13-.66,.35-1.19,.71-1.75,.8-1.22,2.44-1.56,3.66-.76,.32,.21,.55,.44,.76,.76,.37,.56,.58,1.1,.71,1.75,.25,1.26,.27,2.37,.08,3.65-.1,.64-.25,1.16-.51,1.75l3.9,4.25c1.69-1.29,2.76-2.87,3.32-4.92,.37-1.33,.48-2.52,.35-3.9-.2-2.25-1.09-4.1-2.72-5.66-1.52-1.46-3.21-2.3-5.29-2.62" style="fill:#0041c0;"/><path d="M81.66,51.12c-.1-1.5-.16-2.76-.19-4.26-.04-1.97-.06-3.63-.08-5.6,0-1.06-.12-1.96-.39-2.99-.35-1.35-1.14-2.37-2.35-3.05-.73-.41-1.41-.66-2.23-.84-2.61-.56-4.92-.61-7.56-.15-.74,.13-1.35,.31-2.05,.59-1.61,.66-2.71,1.87-3.23,3.53-.2,.64-.25,1.21-.17,1.87,.01,.12,.04,.22,.1,.33l6.1,.15c-.02-.39,.03-.72,.17-1.08,.2-.56,.59-.95,1.15-1.15,.82-.3,1.61-.31,2.44-.04,.55,.18,.93,.57,1.1,1.12,.11,.34,.05,.68-.15,.97-.18,.26-.4,.43-.7,.54-.18,.07-.34,.12-.52,.17-.85,.23-1.57,.38-2.44,.53-.69,.11-1.26,.22-1.94,.36-.92,.19-1.69,.39-2.59,.68-.82,.27-1.46,.64-2.1,1.22-.82,.75-1.29,1.65-1.45,2.75-.1,.74-.08,1.38,.08,2.11,.43,1.89,1.74,3.29,3.6,3.83,2.06,.6,4,.5,6-.3,.97-.39,1.71-.93,2.38-1.74l-.43-3.12c-.31,.47-.69,.8-1.21,1.03-.48,.21-.92,.33-1.45,.38-.44,.04-.82,.01-1.24-.1-.34-.1-.61-.26-.86-.52-.21-.22-.33-.46-.39-.76-.1-.46,.05-.9,.41-1.2,.24-.2,.47-.34,.77-.45,.71-.26,1.31-.46,2.04-.66,.88-.25,1.6-.51,2.43-.9,.08,.66,.08,1.23-.02,1.89-.07,.48-.21,.88-.48,1.29l.43,3.12c.13,.44,.26,.81,.41,1.25,.08,.24,.2,.43,.37,.62h6.72c-.29-.45-.43-.9-.47-1.43" style="fill:#0041c0;"/><path d="M40.96,51.12c-.1-1.5-.16-2.76-.19-4.26-.04-1.97-.06-3.63-.08-5.6,0-1.06-.12-1.96-.39-2.99-.35-1.35-1.14-2.37-2.35-3.05-.73-.41-1.41-.66-2.23-.84-2.61-.56-4.92-.61-7.56-.15-.74,.13-1.35,.31-2.05,.59-1.61,.66-2.71,1.87-3.23,3.53-.2,.64-.25,1.21-.17,1.87,.01,.12,.04,.22,.1,.33l6.1,.15c-.02-.39,.04-.72,.17-1.08,.2-.56,.59-.95,1.15-1.15,.82-.3,1.61-.31,2.44-.04,.55,.18,.93,.57,1.1,1.12,.11,.34,.05,.68-.15,.97-.18,.26-.4,.43-.7,.54-.18,.07-.34,.12-.52,.17-.85,.23-1.57,.38-2.44,.53-.68,.11-1.26,.22-1.94,.36-.92,.19-1.69,.39-2.59,.68-.82,.27-1.46,.64-2.1,1.22-.82,.75-1.29,1.65-1.45,2.75-.11,.74-.08,1.38,.08,2.11,.43,1.89,1.74,3.29,3.6,3.83,2.06,.6,4,.5,6-.3,.97-.39,1.71-.93,2.38-1.74l-.43-3.12c-.31,.47-.69,.8-1.21,1.03-.48,.21-.92,.33-1.45,.38-.44,.04-.82,.01-1.24-.1-.34-.1-.62-.26-.86-.52-.21-.22-.33-.46-.39-.76-.1-.46,.05-.9,.41-1.2,.24-.2,.47-.34,.77-.45,.71-.26,1.31-.46,2.04-.66,.88-.25,1.6-.51,2.43-.9,.08,.66,.08,1.23-.02,1.89-.07,.48-.21,.88-.48,1.29l.43,3.12c.13,.44,.25,.81,.41,1.25,.08,.24,.2,.43,.37,.62h6.72c-.29-.45-.43-.9-.47-1.43" style="fill:#0041c0;"/></g></g></svg>