<?xml version="1.0" encoding="utf-8" ?>
<svg baseProfile="full" height="1080" version="1.1" width="1080" xmlns="http://www.w3.org/2000/svg" xmlns:ev="http://www.w3.org/2001/xml-events" xmlns:xlink="http://www.w3.org/1999/xlink"><defs /><polygon fill="#2f5fb3" points="711,733 710,734 710,815 711,816 728,816 728,785 731,782 755,782 756,783 757,783 758,784 758,815 759,816 775,816 775,815 776,814 776,735 775,734 775,733 759,733 758,734 758,765 756,767 730,767 729,766 729,765 728,764 728,733" /><polygon fill="#2f5fb3" points="548,733 547,734 547,815 548,816 596,816 597,815 597,801 596,800 566,800 565,799 565,798 564,797 564,785 567,782 596,782 597,781 597,768 596,767 566,767 565,766 565,765 564,764 564,752 565,751 565,750 566,749 596,749 597,748 597,734 596,733" /><polygon fill="#2f5fb3" points="485,733 484,734 484,749 497,749 500,752 500,816 517,816 518,815 518,751 519,750 520,750 521,749 534,749 534,734 533,733" /><polygon fill="#2f5fb3" points="418,733 417,734 416,734 416,749 442,749 444,751 444,752 443,753 443,754 442,755 442,756 441,757 441,758 440,759 440,760 439,761 439,762 438,763 438,764 437,765 437,766 436,767 436,768 435,769 435,770 434,771 434,772 433,773 433,775 432,776 432,777 431,778 431,779 430,780 430,781 429,782 429,783 428,784 428,785 427,786 427,787 426,788 426,789 425,790 425,791 424,792 424,793 423,794 423,795 422,796 422,797 421,798 421,799 420,800 420,801 419,802 419,803 418,804 418,805 417,806 417,807 416,808 416,809 415,810 415,811 414,812 414,814 413,815 414,816 468,816 469,815 469,801 442,801 440,799 440,798 441,797 441,796 442,795 442,794 443,793 443,792 444,791 444,790 445,789 445,788 446,787 446,786 447,785 447,784 448,783 448,781 449,780 449,779 450,778 450,777 451,776 451,775 452,774 452,773 453,772 453,771 454,770 454,769 455,768 455,767 456,766 456,765 457,764 457,763 458,762 458,761 459,760 459,759 460,758 460,757 461,756 461,754 462,753 462,752 463,751 463,750 464,749 464,748 465,747 465,746 466,745 466,744 467,743 467,742 468,741 468,740 469,739 469,738 470,737 470,736 471,735 469,733" /><polygon fill="#2f5fb3" points="348,733 346,735 346,737 345,738 345,739 344,740 344,742 343,743 343,744 342,745 342,746 341,747 341,749 340,750 340,751 339,752 339,753 338,754 338,756 337,757 337,758 336,759 336,760 335,761 335,763 334,764 334,765 333,766 333,767 332,768 332,770 331,771 331,772 330,773 330,775 329,776 329,777 328,778 328,779 327,780 327,782 326,783 326,784 325,785 325,786 324,787 324,789 323,790 323,791 322,792 322,793 321,794 321,796 320,797 320,798 319,799 319,801 318,802 318,803 317,804 317,805 316,806 316,808 315,809 315,810 314,811 314,812 313,813 313,816 330,816 332,814 332,813 333,812 333,811 334,810 334,808 335,807 335,806 336,805 336,804 337,803 337,802 339,800 340,800 341,799 373,799 376,802 376,803 377,804 377,805 378,806 378,808 379,809 379,810 380,811 380,813 381,814 381,815 382,816 399,816 400,815 400,814 399,813 399,811 398,810 398,809 397,808 397,807 396,806 396,804 395,803 395,802 394,801 394,800 393,799 393,797 392,796 392,795 391,794 391,793 390,792 390,790 389,789 389,788 388,787 388,786 387,785 387,783 386,782 386,781 385,780 385,779 384,778 384,776 383,775 383,774 382,773 382,771 381,770 381,769 380,768 380,767 379,766 379,764 378,763 378,762 377,761 377,760 376,759 376,757 375,756 375,755 374,754 374,753 373,752 373,751 372,750 371,750 371,751 370,752 370,753 369,754 369,755 368,756 368,758 367,759 367,760 366,761 366,762 365,763 365,765 364,766 364,767 363,768 363,772 364,773 364,774 365,775 365,776 366,777 366,779 367,780 367,781 368,782 367,783 347,783 346,782 346,780 347,779 347,778 348,777 348,775 349,774 349,773 350,772 350,771 351,770 351,768 352,767 352,766 353,765 353,764 354,763 354,762 355,761 355,759 356,758 356,757 357,756 357,755 358,754 358,752 359,751 359,750 360,749 360,747 361,746 361,745 362,744 362,743 363,742 363,740 364,739 364,738 365,737 365,733" /><polygon fill="#2f5fb3" points="650,731 649,732 645,732 644,733 641,733 640,734 638,734 637,735 636,735 635,736 634,736 633,737 632,737 631,738 630,738 629,739 628,739 625,742 624,742 618,748 618,749 616,751 616,752 614,754 614,755 613,756 613,757 612,758 612,760 611,761 611,763 610,764 610,769 609,770 609,779 610,780 610,785 611,786 611,789 612,790 612,791 613,792 613,794 615,796 615,797 616,798 616,799 620,803 620,804 622,806 623,806 627,810 628,810 629,811 630,811 632,813 634,813 635,814 636,814 637,815 639,815 640,816 643,816 644,817 648,817 649,818 666,818 667,817 672,817 673,816 675,816 676,815 678,815 679,814 680,814 681,813 682,813 683,812 684,812 685,811 686,811 688,809 689,809 691,807 692,807 697,802 686,791 684,791 680,795 679,795 677,797 676,797 675,798 674,798 673,799 672,799 671,800 670,800 669,801 666,801 665,802 650,802 649,801 647,801 646,800 645,800 644,799 643,799 642,798 641,798 640,797 639,797 637,795 636,795 633,792 633,791 631,789 631,788 629,786 629,784 628,783 628,780 627,779 627,770 628,769 628,766 629,765 629,764 630,763 630,762 631,761 631,760 639,752 640,752 642,750 643,750 644,749 646,749 647,748 649,748 650,747 665,747 666,748 669,748 670,749 671,749 672,750 673,750 674,751 675,751 676,752 677,752 679,754 680,754 684,758 686,758 687,757 688,757 697,748 697,747 692,742 691,742 689,740 688,740 686,738 685,738 684,737 683,737 682,736 681,736 680,735 679,735 678,734 675,734 674,733 672,733 671,732 666,732 665,731" /><polygon fill="#2f5fb3" points="441,578 440,579 440,583 439,584 439,599 440,600 440,601 441,602 450,602 451,603 484,603 485,604 485,606 486,607 486,643 487,644 489,644 490,645 550,645 551,644 551,626 550,625 550,621 515,621 514,620 508,620 506,618 506,580 504,578" /><polygon fill="#2f5fb3" points="574,527 574,528 573,529 573,549 574,550 574,551 583,551 584,552 618,552 619,553 619,555 620,556 620,592 621,593 622,593 623,594 684,594 685,593 685,574 684,573 684,570 651,570 650,569 642,569 640,567 640,529 639,528 639,527" /><polygon fill="#2f5fb3" points="529,523 529,589 535,589 536,590 569,590 570,591 570,593 571,594 571,633 572,634 581,634 582,635 594,635 596,633 596,578 595,577 595,570 563,570 562,569 555,569 553,567 553,525 552,524 552,523" /><polygon fill="#2f5fb3" points="436,489 435,490 435,534 434,535 400,535 399,536 393,536 393,543 392,544 392,597 393,598 393,599 394,600 403,600 404,601 415,601 417,599 417,559 418,558 418,557 419,556 458,556 460,554 460,502 459,501 459,490 458,489" /><polygon fill="#2f5fb3" points="485,476 484,477 484,552 485,553 490,553 491,554 507,554 509,552 509,502 510,501 551,501 552,500 553,500 553,478 552,477 552,476" /><polygon fill="#2f5fb3" points="570,455 569,456 569,507 570,508 571,508 572,509 637,509 638,508 638,486 636,484 595,484 594,483 594,467 593,466 593,456 592,455" /><polygon fill="#2f5fb3" points="706,442 705,443 705,487 703,489 663,489 663,553 669,553 670,554 686,554 687,553 687,516 688,515 688,511 689,510 691,510 692,509 729,509 730,508 730,450 729,449 729,443 728,442" /><polygon fill="#2f5fb3" points="395,442 395,482 393,484 353,484 352,485 350,485 350,508 353,508 354,509 414,509 415,508 415,470 416,469 416,468 417,467 460,467 462,465 462,450 461,449 461,443 460,442" /><polygon fill="#2f5fb3" points="442,402 442,403 441,404 441,421 442,422 442,423 444,423 445,424 484,424 485,425 485,428 486,429 486,452 487,453 492,453 493,454 509,454 511,452 511,414 510,413 510,403 509,402" /><polygon fill="#2f5fb3" points="658,399 657,400 656,400 656,440 654,442 612,442 612,465 613,466 621,466 622,467 675,467 677,465 677,426 678,425 681,425 682,424 722,424 723,423 723,401 721,399" /><polygon fill="#2f5fb3" points="570,357 569,358 569,400 567,402 527,402 527,403 526,404 526,453 527,454 527,455 533,455 534,456 550,456 551,455 551,428 552,427 552,426 553,425 554,425 555,424 593,424 593,423 594,422 594,368 593,367 593,358 592,357" /><polygon fill="#2f5fb3" points="393,355 393,356 392,357 392,400 390,402 350,402 350,465 351,466 360,466 361,467 372,467 373,466 374,466 374,465 375,464 375,424 377,422 416,422 417,421 417,359 416,358 416,355" /><polygon fill="#2f5fb3" points="394,314 392,316 392,336 393,337 393,338 399,338 400,339 437,339 439,341 439,379 441,381 503,381 504,380 504,359 503,358 503,357 467,357 466,356 461,356 460,355 460,327 459,326 459,315 458,315 457,314" /><polygon fill="#2f5fb3" points="661,308 661,309 660,310 660,353 658,355 618,355 618,418 619,419 624,419 625,420 641,420 643,418 643,377 644,376 647,376 648,375 684,375 685,374 685,311 684,310 684,308" /><polygon fill="#2f5fb3" points="485,274 484,275 484,340 486,340 487,341 524,341 526,343 526,383 527,384 527,385 536,385 537,386 549,386 550,385 551,385 551,324 550,323 550,321 520,321 519,320 510,320 509,319 509,286 508,285 508,275 507,274" /><polygon fill="#2f5fb3" points="528,263 526,265 526,285 527,286 527,287 532,287 533,288 571,288 573,290 573,328 575,330 637,330 638,329 638,308 637,307 637,306 601,306 600,305 595,305 594,304 594,276 593,275 593,264 592,264 591,263" /></svg>